<?xml version="1.0" standalone="no"?>
<!DOCTYPE svg PUBLIC "-//W3C//DTD SVG 20010904//EN"
 "http://www.w3.org/TR/2001/REC-SVG-20010904/DTD/svg10.dtd">
<svg version="1.0" xmlns="http://www.w3.org/2000/svg"
 width="1068.000000pt" height="1280.000000pt" viewBox="0 0 1068.000000 1280.000000"
 preserveAspectRatio="xMidYMid meet">
<metadata>
Created by potrace 1.15, written by Peter Selinger 2001-2017
</metadata>
<g transform="translate(0.000000,1280.000000) scale(0.100000,-0.100000)"
fill="#000000" stroke="none">
<path d="M8210 12785 c-273 -39 -519 -128 -863 -311 -205 -109 -276 -152 -404
-241 -94 -65 -232 -188 -222 -198 7 -6 143 32 448 125 125 37 269 79 321 93
192 51 469 97 590 97 39 0 40 -1 40 -34 l0 -33 -67 -6 c-149 -13 -453 -121
-734 -261 -634 -317 -1059 -706 -1107 -1010 -10 -64 -11 -64 68 -100 46 -22
70 -26 148 -26 58 0 92 -4 92 -11 0 -22 -51 -190 -96 -314 -152 -426 -200
-596 -217 -777 -4 -41 -2 -46 12 -38 28 15 240 238 460 484 378 422 583 616
804 765 411 275 806 456 1169 535 215 47 255 51 508 51 305 0 391 -12 850
-119 209 -49 372 -79 396 -74 10 2 -46 98 -184 313 -313 490 -376 577 -529
726 -217 211 -431 306 -803 354 -178 23 -547 28 -680 10z"/>
<path d="M2035 12766 c-175 -32 -243 -49 -377 -92 -463 -150 -791 -444 -1052
-945 -74 -141 -159 -329 -152 -336 8 -8 186 27 365 71 354 89 463 106 721 113
161 4 230 2 320 -11 528 -76 1042 -336 1625 -822 185 -155 349 -324 515 -529
295 -368 358 -438 413 -463 27 -12 53 -21 57 -20 10 4 -15 159 -45 284 -15 60
-61 208 -102 329 -90 265 -149 451 -158 497 l-7 35 70 6 c102 8 176 33 218 73
35 33 36 36 32 93 -6 78 -47 147 -162 268 -183 192 -468 401 -838 612 -340
193 -734 351 -879 351 -38 0 -39 1 -39 35 0 42 2 42 159 20 306 -44 833 -175
1082 -269 98 -37 106 -33 60 31 -146 201 -592 445 -1085 593 -328 99 -513 118
-741 76z"/>
<path d="M2460 10360 c-483 -23 -811 -145 -1048 -389 -41 -42 -122 -139 -180
-216 -132 -174 -210 -254 -288 -293 -80 -40 -128 -52 -217 -53 -131 -1 -202
48 -362 251 -77 97 -175 203 -175 188 0 -3 14 -48 30 -100 39 -116 84 -199
169 -308 96 -123 123 -161 120 -164 -2 -2 -47 -31 -99 -66 -138 -91 -223 -163
-285 -238 -30 -36 -55 -69 -55 -73 0 -11 112 30 179 67 71 39 246 158 256 174
6 10 75 -36 75 -50 0 -5 -43 -31 -97 -60 -209 -112 -396 -248 -430 -314 -19
-37 -54 -136 -47 -136 6 0 188 133 334 244 172 130 257 166 445 186 139 15
371 12 437 -5 30 -8 127 -48 214 -89 88 -41 202 -88 254 -104 188 -60 435 -95
753 -108 l177 -7 0 162 c0 88 -1 161 -2 161 -421 24 -784 73 -976 131 -156 48
-278 141 -302 230 -81 300 544 684 1181 726 l99 6 0 129 c0 70 -1 127 -2 126
-2 0 -73 -4 -158 -8z"/>
<path d="M8060 10238 l0 -128 134 0 c269 0 435 -30 591 -106 119 -58 207 -125
340 -258 127 -127 182 -218 192 -311 26 -249 -325 -380 -1099 -411 l-158 -6 0
-160 0 -161 178 7 c446 18 662 63 982 204 215 94 270 106 490 107 161 0 197
-3 275 -23 148 -38 286 -113 498 -272 103 -77 189 -140 192 -140 7 0 -20 72
-48 126 -38 74 -125 148 -292 248 -131 79 -285 181 -285 191 0 5 82 -21 147
-48 35 -14 101 -49 148 -77 89 -54 191 -103 238 -114 l28 -7 -29 43 c-48 70
-158 167 -287 253 -66 44 -122 81 -124 82 -2 1 30 48 71 105 95 132 113 161
142 239 25 68 45 181 29 164 -6 -5 -52 -61 -102 -123 -104 -126 -204 -210
-289 -242 -45 -18 -72 -21 -129 -18 -149 10 -255 92 -446 344 -116 154 -276
319 -377 390 -205 144 -447 208 -838 223 l-172 6 0 -127z"/>
<path d="M2810 10205 c0 -52 3 -95 6 -95 23 0 352 -65 414 -82 103 -27 225
-88 286 -142 47 -41 122 -142 113 -150 -2 -2 -38 16 -79 41 -167 100 -295 148
-475 180 -80 13 -164 17 -420 17 -297 1 -328 -1 -430 -22 -293 -62 -558 -189
-713 -342 -98 -97 -125 -168 -80 -209 69 -65 427 -164 813 -225 378 -59 619
-65 915 -23 230 33 416 57 453 57 23 0 27 -4 27 -29 0 -28 -1 -28 -67 -35 -38
-4 -180 -29 -318 -56 -137 -27 -275 -52 -305 -55 -30 -3 -74 -8 -97 -11 l-43
-5 0 -125 0 -124 73 0 c153 0 420 42 603 96 341 98 551 235 726 470 9 13 -31
165 -72 272 -92 240 -292 399 -675 537 -235 85 -514 155 -616 155 l-39 0 0
-95z"/>
<path d="M7715 10293 c-178 -15 -370 -57 -530 -113 -445 -158 -734 -491 -687
-793 55 -357 504 -589 1190 -614 l172 -6 0 126 c0 96 -3 127 -13 127 -46 0
-214 27 -407 65 -184 36 -361 65 -402 65 -5 0 -8 14 -8 30 0 28 3 30 36 30 20
0 163 -18 318 -40 456 -64 472 -65 766 -64 238 0 292 3 400 22 151 27 287 63
389 104 83 32 273 128 309 156 l22 17 -51 78 c-129 196 -335 343 -595 423
-163 49 -278 64 -549 71 -505 11 -727 -45 -1026 -260 l-77 -55 -31 19 c-61 37
-36 66 125 147 206 103 439 193 618 238 56 14 118 30 139 35 l37 10 0 94 0 95
-52 -2 c-29 -1 -71 -3 -93 -5z"/>
<path d="M4680 9870 c-30 -22 -59 -48 -64 -58 -6 -10 -11 -127 -12 -272 -3
-509 -83 -889 -280 -1323 -104 -230 -293 -537 -466 -757 -300 -382 -368 -503
-398 -713 -14 -96 -4 -223 23 -297 15 -41 37 -71 85 -118 35 -34 67 -61 69
-58 2 2 -8 57 -24 123 -21 92 -27 143 -28 233 0 112 1 117 33 176 41 75 95
136 368 419 216 224 267 265 374 306 l53 20 -7 -128 c-4 -70 -16 -225 -26
-343 -48 -527 -12 -759 146 -930 133 -143 305 -211 645 -255 90 -11 413 -6
499 8 347 58 552 254 627 597 27 126 25 487 -5 748 -12 107 -22 219 -22 249
l0 55 66 -37 c112 -61 222 -151 390 -319 174 -175 273 -299 331 -416 35 -70
38 -81 38 -165 -1 -66 -6 -107 -23 -155 -22 -66 -44 -190 -33 -190 10 0 115
111 140 147 59 86 76 223 45 352 -21 89 -116 282 -203 414 -40 60 -140 202
-224 315 -262 357 -344 489 -435 700 -74 175 -144 387 -187 577 -80 347 -100
518 -91 780 7 222 2 242 -80 314 l-49 43 -7 -148 c-4 -82 -18 -266 -30 -409
-20 -222 -23 -322 -23 -685 1 -237 6 -498 13 -590 7 -91 24 -307 37 -480 46
-580 55 -733 62 -1001 l6 -267 -43 -27 c-65 -41 -164 -83 -270 -114 -155 -46
-230 -56 -420 -55 -155 1 -186 4 -273 27 -175 47 -294 131 -352 251 -48 99
-47 181 9 469 l47 237 40 693 c54 946 56 1018 31 1247 -32 284 -34 317 -41
593 l-6 258 -55 -41z"/>
<path d="M3113 7045 c-17 -7 -101 -56 -185 -108 -443 -273 -877 -424 -1493
-518 -117 -18 -324 -15 -418 5 -247 54 -427 153 -699 386 -65 56 -121 100
-123 99 -7 -8 25 -189 50 -290 154 -605 623 -1545 1217 -2437 299 -449 516
-731 813 -1057 71 -77 185 -207 253 -290 141 -168 247 -277 339 -348 34 -26
64 -47 67 -47 8 0 -10 53 -39 110 -15 30 -71 114 -124 185 -153 205 -592 873
-749 1140 -77 130 -222 393 -222 401 0 4 10 4 23 0 50 -12 163 -84 309 -198
303 -235 430 -308 657 -374 100 -29 259 -54 349 -54 61 0 62 0 62 28 0 28 -1
28 -93 40 -182 23 -369 92 -569 211 -472 282 -982 825 -1276 1361 -35 64 -405
914 -419 962 -5 15 -1 16 33 6 110 -30 162 -71 220 -175 20 -38 108 -174 194
-303 86 -129 212 -323 280 -430 363 -574 498 -737 693 -834 187 -94 308 -108
902 -107 242 0 549 3 683 7 l242 7 0 -37 0 -36 -94 0 -94 0 3 -62 4 -63 58
-12 c174 -38 491 -75 803 -94 376 -23 1067 -13 1435 22 136 12 441 55 513 72
l53 12 4 63 3 62 -94 0 -94 0 0 36 0 36 248 -6 c454 -13 1129 -11 1232 3 408
55 560 180 954 779 192 293 536 834 572 901 47 87 108 131 231 166 19 5 14
-11 -46 -162 -110 -274 -398 -875 -511 -1068 -163 -276 -337 -483 -550 -650
-41 -33 -118 -95 -170 -139 -101 -85 -251 -186 -420 -283 -262 -151 -433 -220
-613 -248 -34 -6 -38 -9 -35 -33 3 -24 8 -27 45 -30 63 -5 261 25 360 54 242
70 397 163 746 447 165 134 257 203 257 193 0 -3 -11 -34 -24 -68 -104 -277
-603 -1079 -931 -1499 -50 -63 -103 -137 -118 -162 -34 -57 -80 -177 -69 -177
26 0 404 401 666 705 124 145 627 795 792 1025 240 334 559 866 768 1280 171
338 252 547 347 892 70 257 97 342 139 435 17 36 29 67 27 69 -1 1 -54 -31
-117 -72 -271 -176 -530 -280 -825 -330 -143 -25 -462 -25 -610 0 -353 58
-669 178 -1041 396 -195 114 -286 157 -372 176 -81 17 -126 10 -152 -23 -26
-34 -25 -59 5 -119 53 -106 208 -231 410 -329 270 -132 836 -288 1183 -325 61
-7 112 -14 112 -16 0 -19 -257 -353 -407 -529 -180 -212 -313 -381 -443 -559
l-43 -59 -282 6 c-664 16 -1050 74 -1225 185 -129 81 -372 361 -486 557 -27
47 -52 85 -56 85 -4 0 -161 -39 -350 -87 -432 -108 -468 -112 -668 -59 -363
96 -574 146 -580 139 -3 -4 -55 -76 -114 -159 -406 -572 -635 -664 -1651 -663
l-280 0 -72 97 c-75 102 -183 230 -312 372 -72 79 -508 667 -500 674 2 2 51 9
109 15 211 24 544 100 800 183 351 114 605 241 713 356 73 80 84 130 45 209
-42 84 -94 109 -165 78z m2304 -1766 c64 -30 171 -140 262 -269 41 -58 122
-168 181 -245 115 -152 186 -255 243 -352 l36 -63 -799 0 -799 0 18 43 c89
206 512 754 676 875 68 50 97 52 182 11z"/>
<path d="M3965 6253 c2 -10 9 -47 15 -83 20 -108 64 -172 144 -205 33 -14 310
-75 342 -75 18 0 -11 134 -41 197 -29 59 -80 107 -140 134 -50 22 -198 49
-270 49 -45 0 -53 -3 -50 -17z"/>
<path d="M6435 6242 c-27 -9 -90 -44 -140 -77 l-90 -60 -3 -108 c-2 -65 1
-107 7 -107 6 0 78 13 161 30 159 32 208 50 252 97 32 33 78 131 81 170 4 63
-149 94 -268 55z"/>
<path d="M4680 3312 c0 -30 64 -153 132 -252 112 -164 112 -163 109 -330 -2
-193 -15 -286 -61 -465 -21 -82 -44 -188 -51 -235 -36 -249 47 -1009 162
-1475 37 -152 111 -365 158 -457 l47 -93 161 -3 162 -2 29 42 c70 102 131 248
163 391 23 103 117 690 149 927 45 339 43 442 -18 775 -81 440 -98 575 -83
663 14 87 46 151 131 262 71 93 140 217 140 252 0 17 -34 18 -665 18 -631 0
-665 -1 -665 -18z"/>
</g>
</svg>
